<svg width="1653" height="993" xmlns="http://www.w3.org/2000/svg" xmlns:xlink="http://www.w3.org/1999/xlink" overflow="hidden"><defs><clipPath id="clip0"><rect x="1289" y="217" width="1653" height="993"/></clipPath><clipPath id="clip1"><rect x="1290" y="217" width="1650" height="990"/></clipPath><clipPath id="clip2"><rect x="1290" y="217" width="1650" height="990"/></clipPath><clipPath id="clip3"><rect x="1400" y="268" width="1493" height="731"/></clipPath><clipPath id="clip4"><rect x="1400" y="268" width="1493" height="731"/></clipPath><clipPath id="clip5"><rect x="1290" y="217" width="1650" height="990"/></clipPath><clipPath id="clip6"><rect x="1290" y="217" width="1650" height="990"/></clipPath><clipPath id="clip7"><rect x="1290" y="217" width="1650" height="990"/></clipPath><clipPath id="clip8"><rect x="1290" y="217" width="1650" height="990"/></clipPath><clipPath id="clip9"><rect x="1290" y="217" width="1650" height="990"/></clipPath><clipPath id="clip10"><rect x="1290" y="217" width="1650" height="990"/></clipPath><clipPath id="clip11"><rect x="1290" y="217" width="1650" height="990"/></clipPath><clipPath id="clip12"><rect x="1290" y="217" width="1650" height="990"/></clipPath><clipPath id="clip13"><rect x="1290" y="217" width="1650" height="990"/></clipPath><clipPath id="clip14"><rect x="1290" y="217" width="1650" height="990"/></clipPath><clipPath id="clip15"><rect x="1290" y="217" width="1650" height="990"/></clipPath><clipPath id="clip16"><rect x="1290" y="217" width="1650" height="990"/></clipPath><clipPath id="clip17"><rect x="1290" y="217" width="1650" height="990"/></clipPath><clipPath id="clip18"><rect x="1290" y="217" width="1650" height="990"/></clipPath><clipPath id="clip19"><rect x="1290" y="217" width="1650" height="990"/></clipPath><clipPath id="clip20"><rect x="1290" y="217" width="1650" height="990"/></clipPath><clipPath id="clip21"><rect x="1290" y="217" width="1650" height="990"/></clipPath><clipPath id="clip22"><rect x="1290" y="217" width="1650" height="990"/></clipPath></defs><g clip-path="url(#clip0)" transform="translate(-1289 -217)"><rect x="1290" y="218" width="1650" height="990" fill="#FFFFFF"/><g clip-path="url(#clip1)"><path d="M1400.5 875.529 2889.5 875.529M1400.5 753.525 2889.5 753.525M1400.5 632.521 2889.5 632.521M1400.5 510.517 2889.5 510.517M1400.5 389.513 2889.5 389.513M1400.5 268.5 2889.5 268.5" stroke="#D9D9D9" stroke-width="3.4375" stroke-linejoin="round" stroke-miterlimit="10" fill="none"/></g><g clip-path="url(#clip2)"><path d="M1400.5 996.5 2889.5 996.5" stroke="#D9D9D9" stroke-width="3.4375" stroke-linejoin="round" stroke-miterlimit="10" fill="none" fill-rule="evenodd"/></g><g clip-path="url(#clip3)"><path d="M1506 584 1719.06 584 1932.06 608 2145.07 608 2358.08 584 2570.08 608 2783 584" stroke="#4472C4" stroke-width="10.3125" stroke-linecap="round" stroke-linejoin="round" stroke-miterlimit="10" fill="none"/></g><g clip-path="url(#clip4)"><path d="M1506 341.011 1719.06 487 1932.06 462.015 2145.07 341.011 2358.08 317 2570.08 365.012 2783 414.014" stroke="#ED7D31" stroke-width="10.3125" stroke-linecap="round" stroke-linejoin="round" stroke-miterlimit="10" fill="none"/></g><g clip-path="url(#clip5)"><text fill="#595959" font-family="Calibri,Calibri_MSFontService,sans-serif" font-weight="400" font-size="41" transform="matrix(1 0 0 1 1340.9 1008)">0</text></g><g clip-path="url(#clip6)"><text fill="#595959" font-family="Calibri,Calibri_MSFontService,sans-serif" font-weight="400" font-size="41" transform="matrix(1 0 0 1 1340.9 887)">5</text></g><g clip-path="url(#clip7)"><text fill="#595959" font-family="Calibri,Calibri_MSFontService,sans-serif" font-weight="400" font-size="41" transform="matrix(1 0 0 1 1320 765)">10</text></g><g clip-path="url(#clip8)"><text fill="#595959" font-family="Calibri,Calibri_MSFontService,sans-serif" font-weight="400" font-size="41" transform="matrix(1 0 0 1 1320 644)">15</text></g><g clip-path="url(#clip9)"><text fill="#595959" font-family="Calibri,Calibri_MSFontService,sans-serif" font-weight="400" font-size="41" transform="matrix(1 0 0 1 1320 522)">20</text></g><g clip-path="url(#clip10)"><text fill="#595959" font-family="Calibri,Calibri_MSFontService,sans-serif" font-weight="400" font-size="41" transform="matrix(1 0 0 1 1320 401)">25</text></g><g clip-path="url(#clip11)"><text fill="#595959" font-family="Calibri,Calibri_MSFontService,sans-serif" font-weight="400" font-size="41" transform="matrix(1 0 0 1 1320 280)">30</text></g><g clip-path="url(#clip12)"><text fill="#595959" font-family="Calibri,Calibri_MSFontService,sans-serif" font-weight="400" font-size="41" transform="matrix(1 0 0 1 1496.03 1062)">8</text></g><g clip-path="url(#clip13)"><text fill="#595959" font-family="Calibri,Calibri_MSFontService,sans-serif" font-weight="400" font-size="41" transform="matrix(1 0 0 1 1708.84 1062)">9</text></g><g clip-path="url(#clip14)"><text fill="#595959" font-family="Calibri,Calibri_MSFontService,sans-serif" font-weight="400" font-size="41" transform="matrix(1 0 0 1 1911.21 1062)">10</text></g><g clip-path="url(#clip15)"><text fill="#595959" font-family="Calibri,Calibri_MSFontService,sans-serif" font-weight="400" font-size="41" transform="matrix(1 0 0 1 2124.03 1062)">11</text></g><g clip-path="url(#clip16)"><text fill="#595959" font-family="Calibri,Calibri_MSFontService,sans-serif" font-weight="400" font-size="41" transform="matrix(1 0 0 1 2336.85 1062)">12</text></g><g clip-path="url(#clip17)"><text fill="#595959" font-family="Calibri,Calibri_MSFontService,sans-serif" font-weight="400" font-size="41" transform="matrix(1 0 0 1 2549.66 1062)">13</text></g><g clip-path="url(#clip18)"><text fill="#595959" font-family="Calibri,Calibri_MSFontService,sans-serif" font-weight="400" font-size="41" transform="matrix(1 0 0 1 2762.48 1062)">14</text></g><g clip-path="url(#clip19)"><path d="M1924 1142 2012 1142" stroke="#4472C4" stroke-width="10.3125" stroke-linecap="round" stroke-linejoin="round" stroke-miterlimit="10" fill="none" fill-rule="evenodd"/></g><g clip-path="url(#clip20)"><text fill="#595959" font-family="Yu Gothic,Yu Gothic_MSFontService,sans-serif" font-weight="400" font-size="41" transform="matrix(1 0 0 1 2021.59 1154)">最低</text></g><g clip-path="url(#clip21)"><path d="M2142 1142 2230 1142" stroke="#ED7D31" stroke-width="10.3125" stroke-linecap="round" stroke-linejoin="round" stroke-miterlimit="10" fill="none" fill-rule="evenodd"/></g><g clip-path="url(#clip22)"><text fill="#595959" font-family="Yu Gothic,Yu Gothic_MSFontService,sans-serif" font-weight="400" font-size="41" transform="matrix(1 0 0 1 2239.76 1154)">最高</text></g><rect x="1290.5" y="218.5" width="1650" height="990" stroke="#D9D9D9" stroke-width="3.4375" stroke-linejoin="round" stroke-miterlimit="10" fill="none"/></g></svg>